<svg width="154" height="29" viewBox="0 0 154 29" fill="none" xmlns="http://www.w3.org/2000/svg">
<path d="M15.24 28.08H4.32L2.98023e-08 24.88V12.04L4.32 8.88H15.24L19.12 12.12V15.6H16.48V13.36L14.28 11.52H5.16L2.68 13.4V23.52L5.16 25.4H14.28L16.48 23.6V21.36H19.12V24.84L15.24 28.08ZM37.165 28.08H27.005L22.725 24.88V12.04L27.005 8.92H37.165L41.445 12.04V24.88L37.165 28.08ZM38.805 13.4L36.285 11.52H27.925L25.405 13.4V23.52L27.925 25.4H36.285L38.805 23.52V13.4ZM48.9591 28L45.0391 22.88V-1.90735e-06H47.5991V21.96L50.2391 25.32H53.2391V28H48.9591ZM72.4453 27.96V26.48L70.4853 28H59.9653L56.0453 24.76V12.12L59.9653 8.92H70.5253L72.4453 10.8V8.92H75.0453V27.96H72.4453ZM72.4453 14.4L69.7653 11.52H60.8853L58.7253 13.36V23.56L60.9253 25.32H69.9253L72.4453 23.28V14.4ZM94.2625 28H83.8625L81.7425 26.52V28H79.0625V-1.90735e-06H81.7425V10.76L83.6225 8.88H94.2625L98.1425 12.08V24.76L94.2625 28ZM95.5425 13.36L93.3025 11.56H84.3825L81.7425 14.36V23.24L84.2225 25.32H93.3025L95.5425 23.48V13.36ZM115.798 28.08H105.638L101.358 24.88V12.04L105.638 8.92H115.798L120.078 12.04V24.88L115.798 28.08ZM117.438 13.4L114.918 11.52H106.558L104.038 13.4V23.52L106.558 25.4H114.918L117.438 23.52V13.4ZM145.392 13.96V28H141.152V18.96H127.472V28H123.272V13.96L131.912 -1.90735e-06H136.152L145.392 13.96ZM127.832 14.64L140.752 14.72L134.112 4.64L127.832 14.64ZM148.984 28V-1.90735e-06H153.104V28H148.984Z" fill="black"/>
</svg>
