<svg width="180" height="30" viewBox="0 0 180 30" fill="none" xmlns="http://www.w3.org/2000/svg">
<path d="M4.76 30L0.32 25.56V13.56L4.76 9.12H15.8L19.92 13V17H13.76V14.64L12.2 13.04L8.04 13.08L6.44 14.64L6.48 23.8L8.04 25.4L19.6 25.36V30H4.76ZM28.3928 30L23.9528 25.56V13.56L28.3928 9.12H40.1128L44.5928 13.56V25.56L40.1128 30H28.3928ZM31.6728 26.04H36.8328L38.4328 24.44L38.3928 14.64L36.8328 13.04L31.6728 13.08L30.0728 14.64L30.1128 24.44L31.6728 26.04ZM49.6672 30V0.519998H55.8272V30H49.6672ZM64.465 30L60.025 25.56V21.08L64.465 16.64H74.505V15.04L72.905 13.44H62.665V9.12H76.225L80.665 13.56V30H74.505V27.04L71.585 30H64.465ZM67.745 26.08H70.705L74.505 22.28V20.36H67.745L66.145 21.92L66.185 24.52L67.745 26.08ZM85.9953 30V0.519998H92.1553V11.92L95.1953 9.08H102.675L107.155 13.56V25.56L102.675 30H95.1953L92.1553 27.2V30H85.9953ZM96.0753 26H99.7153L101.075 24.6V14.52L99.7153 13.08L96.0353 13.12L92.1553 16.76V22.32L96.0753 26ZM116.01 30L111.57 25.56V13.56L116.01 9.12H127.73L132.21 13.56V25.56L127.73 30H116.01ZM119.29 26.04H124.45L126.05 24.44L126.01 14.64L124.45 13.04L119.29 13.08L117.69 14.64L117.73 24.44L119.29 26.04ZM134.484 30L143.124 0.519998H155.284L163.924 30H156.004L154.524 24.12H143.884L142.404 30H134.484ZM145.364 18.36H153.044L149.924 6.16H148.484L145.364 18.36ZM165.538 30V24.36H168.818L168.738 6.16H165.538V0.519998H179.138V6.16H175.898L175.818 24.36H179.138V30H165.538Z" fill="black"/>
</svg>
